ffmpeg started on 2026-03-28 at 14:53:37
Report written to "ffmpeg_log.txt"
Log level: 32
Command line:
/Volumes/Ark/shell/pyMediaConvert/bin/ffmpeg -y -hide_banner -loglevel error -hwaccel auto -i /Users/tim/Downloads/vidu-video-3224265738172667.mp4 -i /Volumes/Ark/shell/pyMediaConvert/assets/Gemini.png -i /Volumes/Ark/shell/pyMediaConvert/assets/Veo.png -stream_loop -1 -framerate 25 -i "/Volumes/Ark/shell/pyMediaConvert/assets/PixVerse/%03d.png" -filter_complex "[0:v]scale='if(gt(iw/ih,0.5625),-2,1080)':'if(gt(iw/ih,0.5625),1920,-2)',setsar=1,crop=1080:1920[base];[base]split[vsplit01][vsplit02];[vsplit01]crop=99:80:700:1783,boxblur=10[b0];[vsplit02][b0]overlay=700:1783:format=auto[l_blur_0];[l_blur_0]split[vsplit11][vsplit12];[vsplit11]crop=112:61:700:1839,boxblur=10[b1];[vsplit12][b1]overlay=700:1839:format=auto[l_blur_1];[l_blur_1]split[vsplit21][vsplit22];[vsplit21]crop=1080:1920:700:15,boxblur=10[b2];[vsplit22][b2]overlay=700:15:format=auto[l_blur_2];[1:v]scale=99:80[logo_img_0];[l_blur_2][logo_img_0]overlay=700:1783:format=auto[layer_0];[2:v]scale=112:61[logo_img_1];[layer_0][logo_img_1]overlay=700:1839:format=auto[layer_1];[3:v]scale=1080:1920[logo_img_2];[layer_1][logo_img_2]overlay=700:15:format=auto[layer_2]" -map "[layer_2]" -map "0:a?" -c:v h264_videotoolbox -b:v 15M -maxrate 25M -bufsize 25M -profile:v high -pix_fmt yuv420p /Users/tim/Downloads/CONVERTED_OUTPUT/vidu-video-3224265738172667_watermarked.mp4 -progress - -nostats
Input #0, mov,mp4,m4a,3gp,3g2,mj2, from '/Users/tim/Downloads/vidu-video-3224265738172667.mp4':
  Metadata:
    major_brand     : isom
    minor_version   : 512
    compatible_brands: isomiso2mp41
    AIGC            : {"Label": "1", "ContentProducer": "001191110108MACC4D63XF10306", "ContentPropagator": "001191110108MACC4D63XF10306", "ProduceID": "img2video-3.2-8-720p-3224265739638979", "PropagateID": "img2video-3.2-8-720p-3224265739638979", "ReservedCode1": "a81a421f78
    encoder         : Lavf58.29.100
  Duration: 00:00:08.04, start: 0.000000, bitrate: 3808 kb/s
  Stream #0:0[0x1](und): Video: hevc (Main) (hvc1 / 0x31637668), yuvj420p(pc, bt709, progressive), 1288x1612, 3671 kb/s, 24 fps, 24 tbr, 12288 tbn (default)
    Metadata:
      handler_name    : VideoHandler
  Stream #0:1[0x2](und): Audio: aac (LC) (mp4a / 0x6134706D), 48000 Hz, stereo, fltp, 129 kb/s (default)
    Metadata:
      handler_name    : SoundHandler
Input #1, png_pipe, from '/Volumes/Ark/shell/pyMediaConvert/assets/Gemini.png':
  Duration: N/A, bitrate: N/A
  Stream #1:0: Video: png, rgba(pc, gbr/unknown/unknown), 99x80 [SAR 2835:2835 DAR 99:80], 25 fps, 25 tbr, 25 tbn
Input #2, png_pipe, from '/Volumes/Ark/shell/pyMediaConvert/assets/Veo.png':
  Duration: N/A, bitrate: N/A
  Stream #2:0: Video: png, rgba(pc, gbr/unknown/unknown), 112x61 [SAR 2835:2835 DAR 112:61], 25 fps, 25 tbr, 25 tbn
Input #3, image2, from '/Volumes/Ark/shell/pyMediaConvert/assets/PixVerse/%03d.png':
  Duration: 00:00:10.08, start: 0.000000, bitrate: N/A
  Stream #3:0: Video: png, rgba(pc, gbr/bt709/bt709), 1080x1920, 25 fps, 25 tbr, 25 tbn
[vist#0:0/hevc @ 0x7f9452110f00] [dec:hevc @ 0x7f945211d2c0] Using auto hwaccel type videotoolbox with new default device.
Stream mapping:
  Stream #0:0 (hevc) -> scale:default
  Stream #1:0 (png) -> scale:default
  Stream #2:0 (png) -> scale:default
  Stream #3:0 (png) -> scale:default
  overlay:default -> Stream #0:0 (h264_videotoolbox)
  Stream #0:1 -> #0:1 (aac (native) -> aac (native))
Press [q] to stop, [?] for help
Output #0, mp4, to '/Users/tim/Downloads/CONVERTED_OUTPUT/vidu-video-3224265738172667_watermarked.mp4':
  Metadata:
    major_brand     : isom
    minor_version   : 512
    compatible_brands: isomiso2mp41
    AIGC            : {"Label": "1", "ContentProducer": "001191110108MACC4D63XF10306", "ContentPropagator": "001191110108MACC4D63XF10306", "ProduceID": "img2video-3.2-8-720p-3224265739638979", "PropagateID": "img2video-3.2-8-720p-3224265739638979", "ReservedCode1": "a81a421f78
    encoder         : Lavf62.12.100
  Stream #0:0: Video: h264 (avc1 / 0x31637661), yuv420p(pc, bt709, progressive), 1080x1920 [SAR 1:1 DAR 9:16], q=2-31, 15000 kb/s, 24 fps, 12288 tbn
    Metadata:
      encoder         : Lavc62.28.100 h264_videotoolbox
  Stream #0:1(und): Audio: aac (LC) (mp4a / 0x6134706D), 48000 Hz, stereo, fltp, 128 kb/s (default)
    Metadata:
      encoder         : Lavc62.28.100 aac
      handler_name    : SoundHandler
